<svg width="30" height="30" viewBox="0 0 30 30" fill="none" xmlns="http://www.w3.org/2000/svg">
<g clip-path="url(#clip0_221_21)">
<path d="M15 16.875C19.6582 16.875 23.4375 13.0957 23.4375 8.4375C23.4375 3.7793 19.6582 0 15 0C10.3418 0 6.5625 3.7793 6.5625 8.4375C6.5625 13.0957 10.3418 16.875 15 16.875ZM22.5 18.75H19.2715C17.9707 19.3477 16.5234 19.6875 15 19.6875C13.4766 19.6875 12.0352 19.3477 10.7285 18.75H7.5C3.35742 18.75 0 22.1074 0 26.25V27.1875C0 28.7402 1.25977 30 2.8125 30H27.1875C28.7402 30 30 28.7402 30 27.1875V26.25C30 22.1074 26.6426 18.75 22.5 18.75Z" fill="#FFFBFB"/>
</g>
<defs>
<clipPath id="clip0_221_21">
<rect width="30" height="30" fill="white"/>
</clipPath>
</defs>
</svg>
